<?xml version="1.0" standalone="no"?>
<!DOCTYPE svg PUBLIC "-//W3C//DTD SVG 1.1//EN" "http://www.w3.org/Graphics/SVG/1.1/DTD/svg11.dtd" >
<svg xmlns="http://www.w3.org/2000/svg" xmlns:xlink="http://www.w3.org/1999/xlink" version="1.1">
<metadata>
Created by FontForge 20170731 at Tue Nov 12 06:47:05 2019
 By Aleksey,,,
Copyright (c) 2002, Linotype GmbH
</metadata>
<defs>
<font id="HelveticaNeueLT-25UltLt" horiz-adv-x="500" >
  <font-face 
    font-family="Helvetica Neue LT Ultra Light"
    font-weight="250"
    font-stretch="normal"
    units-per-em="1000"
    panose-1="2 0 3 3 0 0 0 0 0 0"
    ascent="800"
    descent="-200"
    x-height="514"
    cap-height="714"
    bbox="-75 -214 1016 938"
    underline-thickness="50"
    underline-position="-150"
    unicode-range="U+000D-2122"
  />
<missing-glyph horiz-adv-x="512" 
d="M512 718h-512v-718h512v718zM462 50h-412v617h412v-617zM225 234h46q0 52 6 72q6 19 43 52q37 34 50 60t13 60q0 59 -35 95t-89 36q-56 0 -92 -34t-43 -103l50 -8q11 95 82 95q31 0 53.5 -24.5t22.5 -60.5q0 -20 -9.5 -37t-40.5 -46q-31 -31 -46 -59q-13 -25 -13 -81z
M222 117h56v67h-56v-67z" />
    <glyph glyph-name=".notdef" horiz-adv-x="512" 
d="M512 718h-512v-718h512v718zM462 50h-412v617h412v-617zM225 234h46q0 52 6 72q6 19 43 52q37 34 50 60t13 60q0 59 -35 95t-89 36q-56 0 -92 -34t-43 -103l50 -8q11 95 82 95q31 0 53.5 -24.5t22.5 -60.5q0 -20 -9.5 -37t-40.5 -46q-31 -31 -46 -59q-13 -25 -13 -81z
M222 117h56v67h-56v-67z" />
    <glyph glyph-name="glyph1" horiz-adv-x="0" 
 />
    <glyph glyph-name="glyph1" horiz-adv-x="0" 
 />
    <glyph glyph-name="uni000D" unicode="&#xd;" horiz-adv-x="1000" 
 />
    <glyph glyph-name="space" unicode=" " horiz-adv-x="278" 
 />
    <glyph glyph-name="exclam" unicode="!" horiz-adv-x="185" 
d="M83 182v532h20v-532h-20zM83 0v98h20v-98h-20z" />
    <glyph glyph-name="quotedbl" unicode="&#x22;" horiz-adv-x="278" 
d="M185 489v225h20v-225h-20zM73 489v225h20v-225h-20z" />
    <glyph glyph-name="numbersign" unicode="#" horiz-adv-x="556" 
d="M129 0l31 229h-125v20h130l24 177h-126v20h131l31 234h20l-31 -234h171l31 234h20l-31 -234h116v-20h-121l-24 -177h117v-20h-121l-31 -229h-20l31 229h-172l-31 -229h-20zM185 249h171l24 177h-171z" />
    <glyph glyph-name="dollar" unicode="$" horiz-adv-x="556" 
d="M6 237h20q0 -225 239 -233v356q-111 26 -148 44q-90 44 -90 143q0 50 21 87t56.5 57.5t75.5 30t85 9.5v43h20v-44q227 -5 238 -216h-20q-7 191 -218 196v-334l8 -2q9 -2 38.5 -9.5t38.5 -10.5t33.5 -10.5t33.5 -12t27.5 -14t25.5 -18t19 -22t16 -28t8 -33.5t4 -41
q0 -94 -74.5 -143t-177.5 -49v-88h-20v89q-120 4 -190.5 66.5t-68.5 186.5zM265 381v330q-55 0 -101.5 -14t-81.5 -52.5t-35 -97.5q0 -34 13 -60.5t30 -42t51 -29t57 -19.5t67 -15zM285 3q95 0 163.5 43.5t68.5 129.5q0 37 -12.5 65t-33 45.5t-48.5 30t-57 20t-61 14.5
q-14 3 -20 4v-352z" />
    <glyph glyph-name="percent" unicode="%" horiz-adv-x="685" 
d="M88 -34l476 748h23l-476 -748h-23zM173 350q-74 0 -113 49t-39 120q0 77 40.5 125t111.5 48q74 0 114.5 -47.5t40.5 -124.5q0 -72 -41.5 -121t-113.5 -49zM173 370q64 0 99.5 43t35.5 106q0 71 -34 112t-101 41q-66 0 -99 -41.5t-33 -111.5q0 -64 34 -106.5t98 -42.5z
M357 157q0 77 40.5 125t111.5 48q74 0 114.5 -47.5t40.5 -124.5q0 -72 -41.5 -121t-113.5 -49q-74 0 -113 49t-39 120zM377 157q0 -64 34 -106.5t98 -42.5t99.5 43t35.5 106q0 71 -34 112t-101 41q-66 0 -99 -41.5t-33 -111.5z" />
    <glyph glyph-name="ampersand" unicode="&#x26;" horiz-adv-x="574" 
d="M44 160q0 34 13 65t28.5 51.5t47.5 46.5t49 37t54 34q-8 12 -32 42t-37 48.5t-25 46t-12 50.5q0 64 43.5 98.5t102.5 34.5q62 0 104 -36t42 -97q0 -27 -8.5 -50.5t-29.5 -45.5t-34 -33.5t-45.5 -34.5t-39.5 -28l188 -238q28 62 24 126h20q1 -74 -30 -144l105 -133h-26
l-89 113q-71 -130 -209 -130q-80 0 -142 49t-62 128zM253 404q5 3 25.5 17.5t29.5 21t27 21t27 26t20 26.5t15.5 31.5t4.5 33.5q0 50 -37 81.5t-88 31.5q-54 0 -90.5 -30.5t-36.5 -80.5q0 -31 21 -65.5t82 -113.5zM64 160q0 -73 55 -115t129 -42q133 0 196 129l-196 246
q-2 -1 -26.5 -16.5t-29.5 -19t-26.5 -18.5t-28 -22t-22.5 -22t-22 -26t-14.5 -27t-11.5 -32.5t-3 -34.5z" />
    <glyph glyph-name="quotesingle" unicode="'" horiz-adv-x="167" 
d="M74 489v225h20v-225h-20z" />
    <glyph glyph-name="parenleft" unicode="(" horiz-adv-x="222" 
d="M185 -177q-60 119 -88.5 226.5t-28.5 232.5q0 237 116 449h20q-116 -212 -116 -449q0 -245 117 -459h-20z" />
    <glyph glyph-name="parenright" unicode=")" horiz-adv-x="222" 
d="M18 -177q116 212 116 449q0 245 -117 459h20q60 -119 88.5 -226.5t28.5 -232.5q0 -237 -116 -449h-20z" />
    <glyph glyph-name="asterisk" unicode="*" horiz-adv-x="352" 
d="M90 438l-16 13l88 104l-130 43l6 19l126 -43v140h20v-140l132 43l4 -19l-130 -43l83 -109l-16 -12l-83 108z" />
    <glyph glyph-name="plus" unicode="+" horiz-adv-x="600" 
d="M48 243v20h242v243h20v-243h242v-20h-242v-243h-20v243h-242z" />
    <glyph glyph-name="comma" unicode="," horiz-adv-x="278" 
d="M129 0v98h20v-98q0 -88 -44 -119v20q24 24 24 99z" />
    <glyph glyph-name="hyphen" unicode="-" horiz-adv-x="333" 
d="M79 258v20h175v-20h-175z" />
    <glyph glyph-name="period" unicode="." horiz-adv-x="278" 
d="M129 0v98h20v-98h-20z" />
    <glyph glyph-name="slash" unicode="/" horiz-adv-x="333" 
d="M-7 -17l327 748h20l-327 -748h-20z" />
    <glyph glyph-name="zero" unicode="0" horiz-adv-x="556" 
d="M278 -12q-70 0 -122 30.5t-80.5 82.5t-41.5 111.5t-13 127.5t13 127.5t41.5 111.5t80.5 82.5t122 30.5t122 -30.5t80.5 -82.5t41.5 -111.5t13 -127.5t-13 -127.5t-41.5 -111.5t-80.5 -82.5t-122 -30.5zM278 8q66 0 114.5 29.5t74 80t37 105.5t11.5 117t-11.5 117
t-37 105.5t-74 80t-114.5 29.5t-114.5 -29.5t-74 -80t-37 -105.5t-11.5 -117t11.5 -117t37 -105.5t74 -80t114.5 -29.5z" />
    <glyph glyph-name="one" unicode="1" horiz-adv-x="556" 
d="M298 0v654h-2q-30 -41 -79 -73t-102 -47v20q58 19 97 47t84 79h22v-680h-20z" />
    <glyph glyph-name="two" unicode="2" horiz-adv-x="556" 
d="M55 0q0 19 3 36t12 34t16.5 30.5t24 30l26 26t32 26.5t32 24t35 25.5t33.5 23.5q49 34 77.5 56.5t62.5 55.5t50 68t16 73q0 78 -52.5 120.5t-136.5 42.5q-102 0 -150.5 -58t-48.5 -157h-20q1 113 56.5 174t162.5 61q91 0 150 -47.5t59 -135.5q0 -46 -22.5 -88.5
t-58.5 -76.5t-79.5 -66.5t-87.5 -63t-81.5 -60t-62.5 -64.5t-28 -70h438v-20h-458z" />
    <glyph glyph-name="three" unicode="3" horiz-adv-x="556" 
d="M40 230h20q-8 -105 54.5 -163.5t172.5 -58.5q87 0 148.5 48t61.5 132q0 159 -195 168h-49v20h49q76 0 129 36t53 113q-2 76 -57.5 111.5t-135.5 35.5q-100 0 -157 -52t-55 -151h-20q-2 108 60.5 165.5t171.5 57.5q90 0 151.5 -41t61.5 -126q0 -70 -40.5 -111t-105.5 -47
v-2q67 -7 113 -51t46 -126q0 -91 -66.5 -145.5t-163.5 -54.5q-118 0 -186.5 64t-60.5 178z" />
    <glyph glyph-name="four" unicode="4" horiz-adv-x="556" 
d="M34 177v24l340 479h25v-483h123v-20h-123v-177h-20v177h-345zM54 197h325v455h-2z" />
    <glyph glyph-name="five" unicode="5" horiz-adv-x="556" 
d="M37 218h20q-4 -98 55.5 -154t160.5 -56q99 0 157 59.5t58 158.5q0 94 -59.5 154.5t-155.5 60.5q-61 0 -112 -27t-78 -77h-25l73 343h349v-20h-333l-62 -291h2q57 92 186 92q104 0 169.5 -66t65.5 -169q0 -108 -65 -173t-170 -65q-108 0 -174 62t-62 168z" />
    <glyph glyph-name="six" unicode="6" horiz-adv-x="556" 
d="M84 95q-45 69 -45 226q0 54 7.5 104t26 99.5t46.5 86t73.5 59t102.5 22.5q86 0 143 -49t67 -123h-20q-10 44 -31.5 75.5t-49.5 47t-55 22.5t-55 7q-58 0 -102.5 -25.5t-69.5 -64.5t-40.5 -92.5t-20 -102t-3.5 -100.5h2q14 72 77.5 121.5t144.5 49.5q92 0 163.5 -67
t71.5 -168q0 -100 -69.5 -167.5t-165.5 -67.5q-65 0 -117.5 31.5t-80.5 75.5zM67 223q0 -89 63 -152t152 -63t152 63t63 152t-63 152t-152 63t-152 -63t-63 -152z" />
    <glyph glyph-name="seven" unicode="7" horiz-adv-x="556" 
d="M168 0q-2 190 77.5 351t227.5 309h-412v20h434v-27q-150 -150 -228.5 -305.5t-78.5 -347.5h-20z" />
    <glyph glyph-name="eight" unicode="8" horiz-adv-x="556" 
d="M31 190q0 78 46.5 126.5t127.5 56.5v2q-60 9 -100 48.5t-40 96.5q0 87 59 129.5t154 42.5t154 -42.5t59 -129.5q0 -57 -40 -96.5t-100 -48.5v-2q81 -8 127.5 -56.5t46.5 -126.5q0 -100 -70 -151t-177 -51t-177 51t-70 151zM278 382q76 0 134.5 35.5t58.5 102.5
q0 80 -55 116t-138 36t-138 -36t-55 -116q0 -46 30 -78.5t72.5 -46t90.5 -13.5zM51 190q0 -92 64.5 -137t162.5 -45t162.5 45t64.5 137q0 91 -64 131.5t-163 40.5t-163 -40.5t-64 -131.5z" />
    <glyph glyph-name="nine" unicode="9" horiz-adv-x="556" 
d="M51 160h20q10 -44 31.5 -75.5t49.5 -47t55 -22.5t55 -7q59 0 103 25.5t69 64.5t40.5 92.5t20 102t3.5 100.5h-2q-16 -73 -78.5 -122t-143.5 -49q-92 0 -163.5 67t-71.5 168q0 100 69.5 167.5t165.5 67.5q65 0 117.5 -31.5t80.5 -75.5q46 -69 46 -226q0 -69 -12.5 -130.5
t-40.5 -117.5t-80.5 -89.5t-123.5 -33.5q-86 0 -143 49t-67 123zM274 242q89 0 152 63t63 152t-63 152t-152 63t-152 -63t-63 -152t63 -152t152 -63z" />
    <glyph glyph-name="colon" unicode=":" horiz-adv-x="278" 
d="M129 416v98h20v-98h-20zM129 0v98h20v-98h-20z" />
    <glyph glyph-name="semicolon" unicode=";" horiz-adv-x="278" 
d="M129 416v98h20v-98h-20zM129 0v98h20v-98q0 -88 -44 -119v20q24 24 24 99z" />
    <glyph glyph-name="less" unicode="&#x3c;" horiz-adv-x="600" 
d="M46 241v24l508 249v-21l-490 -240l490 -240v-21z" />
    <glyph glyph-name="equal" unicode="=" horiz-adv-x="600" 
d="M48 340v20h504v-20h-504zM48 146v20h504v-20h-504z" />
    <glyph glyph-name="greater" unicode="&#x3e;" horiz-adv-x="600" 
d="M46 -8v21l490 240l-490 240v21l508 -249v-24z" />
    <glyph glyph-name="question" unicode="?" 
d="M232 182q0 68 21 113t77 99q1 1 16 13.5t26.5 25t26 32t22.5 45.5t8 55q0 69 -49.5 107.5t-127.5 38.5q-97 0 -149 -59.5t-48 -158.5h-20q-4 106 54.5 172t162.5 66q85 0 141 -44t56 -122q0 -19 -3 -36t-7 -30.5t-12.5 -27.5t-14 -22t-16.5 -20t-15.5 -16.5t-16 -14.5
t-13.5 -12q-58 -55 -78.5 -95t-20.5 -109h-20zM232 0v98h20v-98h-20z" />
    <glyph glyph-name="at" unicode="@" horiz-adv-x="800" 
d="M194 277q0 64 28.5 129.5t85 112.5t123.5 47q48 0 86 -23t51 -62h2l24 66h21l-111 -288q-44 -107 25 -107q66 0 130 77.5t64 181.5q0 124 -86.5 202.5t-217.5 78.5q-145 0 -243.5 -98.5t-98.5 -240.5q0 -163 98 -254t244 -91q88 0 164.5 44t125.5 114h23
q-48 -80 -134.5 -129t-178.5 -49q-69 0 -132.5 22t-115.5 65t-83 115t-31 163q0 153 106 256t256 103q138 0 231 -82.5t93 -218.5q0 -111 -69.5 -195t-146.5 -84q-30 0 -47 18t-12 45h-2q-46 -63 -136 -63q-57 0 -96.5 42.5t-39.5 102.5zM214 277q0 -53 34 -89t86 -36
q107 0 154 120l71 184q-12 47 -50 68.5t-82 21.5q-88 0 -150.5 -88.5t-62.5 -180.5z" />
    <glyph glyph-name="A" unicode="A" horiz-adv-x="575" 
d="M11 0h-23l290 714h26l282 -714h-22l-94 235h-364zM114 255h348l-170 439h-2z" />
    <glyph glyph-name="B" unicode="B" horiz-adv-x="611" 
d="M47 0v714h307q88 0 144.5 -46t56.5 -132q0 -65 -43 -112t-108 -51v-2q73 -2 123 -50t50 -127q0 -93 -64.5 -143.5t-170.5 -50.5h-295zM67 382h287q76 0 128.5 40.5t52.5 113.5q0 78 -50.5 118t-130.5 40h-287v-312zM67 20h284q91 0 148.5 44.5t57.5 128.5q0 86 -59 127.5
t-144 41.5h-287v-342z" />
    <glyph glyph-name="C" unicode="C" horiz-adv-x="685" 
d="M348 3q124 0 201 77t93 200h20q-19 -134 -101 -215.5t-213 -81.5q-142 0 -232.5 104t-90.5 264q0 54 11.5 106t37.5 102t63.5 88t95.5 61t128 23q67 0 123 -23.5t89.5 -59.5t52.5 -74.5t20 -73.5h-20q-6 82 -80 146.5t-185 64.5q-68 0 -123 -23.5t-90 -60.5t-59 -85.5
t-34 -96t-10 -94.5q0 -143 82 -245.5t221 -102.5z" />
    <glyph glyph-name="D" unicode="D" horiz-adv-x="648" 
d="M54 0v714h250q58 0 108.5 -17t96 -55.5t72.5 -111.5t27 -173q0 -93 -27.5 -163.5t-75.5 -111.5t-106.5 -61.5t-125.5 -20.5h-219zM74 20h204q135 0 222.5 86.5t87.5 250.5q0 77 -16.5 137t-43.5 97t-65.5 61t-78 33t-85.5 9h-225v-674z" />
    <glyph glyph-name="E" unicode="E" horiz-adv-x="537" 
d="M54 0v714h474v-20h-454v-312h427v-20h-427v-342h458v-20h-478z" />
    <glyph glyph-name="F" unicode="F" horiz-adv-x="481" 
d="M54 0v714h440v-20h-420v-312h380v-20h-380v-362h-20z" />
    <glyph glyph-name="G" unicode="G" horiz-adv-x="722" 
d="M32 357q0 161 90.5 267.5t244.5 106.5q120 0 199 -65t97 -175h-20q-18 101 -92 160.5t-184 59.5q-145 0 -230 -101t-85 -253q0 -154 83 -254t235 -100q120 0 202 78t82 196v37h-277v20h297v-335h-20v178h-2q-28 -90 -104 -142t-181 -52q-159 0 -247 106.5t-88 267.5z" />
    <glyph glyph-name="H" unicode="H" horiz-adv-x="648" 
d="M54 0v714h20v-332h500v332h20v-714h-20v362h-500v-362h-20z" />
    <glyph glyph-name="I" unicode="I" horiz-adv-x="128" 
d="M54 0v714h20v-714h-20z" />
    <glyph glyph-name="J" unicode="J" horiz-adv-x="463" 
d="M18 178v43h20v-43q0 -175 170 -175q89 0 132.5 45t43.5 153v513h20v-528q0 -203 -196 -203q-97 0 -143.5 53t-46.5 142z" />
    <glyph glyph-name="K" unicode="K" horiz-adv-x="593" 
d="M54 0v714h20v-434l495 434h30l-345 -304l365 -410h-27l-354 398l-164 -145v-253h-20z" />
    <glyph glyph-name="L" unicode="L" horiz-adv-x="481" 
d="M54 0v714h20v-694h417v-20h-437z" />
    <glyph glyph-name="M" unicode="M" horiz-adv-x="780" 
d="M54 0v714h33l302 -688h2l302 688h33v-714h-20v689h-2l-303 -689h-22l-303 689h-2v-689h-20z" />
    <glyph glyph-name="N" unicode="N" horiz-adv-x="648" 
d="M54 0v714h30l488 -689h2v689h20v-714h-30l-488 689h-2v-689h-20z" />
    <glyph glyph-name="O" unicode="O" horiz-adv-x="721" 
d="M32 357q0 159 87.5 266.5t241.5 107.5t241.5 -107.5t87.5 -266.5t-87.5 -266.5t-241.5 -107.5t-241.5 107.5t-87.5 266.5zM52 357q2 -157 84.5 -255.5t224.5 -98.5q141 0 224 98.5t85 255.5q-2 157 -85 255.5t-224 98.5q-142 0 -224.5 -98.5t-84.5 -255.5z" />
    <glyph glyph-name="P" unicode="P" horiz-adv-x="574" 
d="M74 325v-325h-20v714h289q104 0 160.5 -49.5t56.5 -145.5q0 -92 -62.5 -143t-164.5 -51h-259zM74 694v-349h269q87 0 142 46.5t55 127.5q0 175 -197 175h-269z" />
    <glyph glyph-name="Q" unicode="Q" horiz-adv-x="721" 
d="M689 -22l-118 80q-85 -75 -210 -75q-154 0 -241.5 107.5t-87.5 266.5t87.5 266.5t241.5 107.5t241.5 -107.5t87.5 -266.5q0 -183 -106 -286l115 -79zM553 70l-126 86l11 16l129 -89q101 98 103 274q-2 157 -85 255.5t-224 98.5q-142 0 -224.5 -98.5t-84.5 -255.5
q2 -157 84.5 -255.5t224.5 -98.5q113 0 192 67z" />
    <glyph glyph-name="R" unicode="R" horiz-adv-x="611" 
d="M74 335v-335h-20v714h292q110 0 163 -44.5t55 -138.5q2 -71 -38 -119t-115 -65v-2q85 -11 113 -57t28 -141q0 -123 17 -147h-22q-15 33 -15 150q0 48 -6.5 79t-26 57t-58 37.5t-98.5 11.5h-269zM74 694v-339h267q87 0 145 45t58 133q-2 161 -193 161h-277z" />
    <glyph glyph-name="S" unicode="S" horiz-adv-x="611" 
d="M551 514h-20q-7 197 -232 197q-41 0 -78 -8t-71 -25.5t-54.5 -51t-20.5 -79.5q0 -19 4 -35.5t9.5 -29t17 -24t20.5 -19.5t26.5 -16t28.5 -12.5t33.5 -10.5t34 -9t36.5 -8.5t36 -8.5q9 -2 38.5 -9.5t38.5 -10.5t33.5 -10.5t33.5 -12t27.5 -14t25.5 -18t19 -22t16 -28
t8 -33.5t4 -41q0 -94 -74.5 -143t-177.5 -49q-130 0 -205.5 62.5t-73.5 191.5h20q0 -234 259 -234q95 0 163.5 43.5t68.5 129.5q0 26 -7 48t-16 37.5t-27.5 28.5t-33 21t-40 16t-40.5 12t-44 10.5t-42 9.5q-114 26 -154 46q-86 44 -86 142q0 51 21.5 88t58 57t77.5 29.5
t87 9.5q241 0 252 -217z" />
    <glyph glyph-name="T" unicode="T" 
d="M240 694h-257v20h534v-20h-257v-694h-20v694z" />
    <glyph glyph-name="U" unicode="U" horiz-adv-x="632" 
d="M558 266v448h20v-448q0 -142 -67 -212.5t-195 -70.5t-195 70.5t-67 212.5v448h20v-448q0 -263 242 -263t242 263z" />
    <glyph glyph-name="V" unicode="V" horiz-adv-x="538" 
d="M274 26l262 688h20l-272 -714h-22l-280 714h20l270 -688h2z" />
    <glyph glyph-name="W" unicode="W" horiz-adv-x="870" 
d="M661 25l199 689h20l-207 -714h-27l-210 689h-2l-206 -689h-27l-211 714h21l202 -689h2l206 689h29l209 -689h2z" />
    <glyph glyph-name="X" unicode="X" horiz-adv-x="520" 
d="M261 383l249 331h25l-260 -347l272 -367h-25l-261 351l-263 -351h-25l275 367l-260 347h26z" />
    <glyph glyph-name="Y" unicode="Y" horiz-adv-x="538" 
d="M269 322l275 392h24l-289 -413v-301h-20v301l-289 413h25z" />
    <glyph glyph-name="Z" unicode="Z" 
d="M1 20h507v-20h-527v27l499 667h-471v20h491v-27z" />
    <glyph glyph-name="bracketleft" unicode="[" horiz-adv-x="222" 
d="M96 731h113v-20h-93v-868h93v-20h-113v908z" />
    <glyph glyph-name="backslash" unicode="\" horiz-adv-x="333" 
d="M340 -17h-20l-327 748h20z" />
    <glyph glyph-name="bracketright" unicode="]" horiz-adv-x="222" 
d="M126 -177h-113v20h93v868h-93v20h113v-908z" />
    <glyph glyph-name="asciicircum" unicode="^" horiz-adv-x="600" 
d="M310 680l231 -453h-20l-221 433l-221 -433h-20l231 453h20z" />
    <glyph glyph-name="underscore" unicode="_" 
d="M500 -125h-500v50h500v-50z" />
    <glyph glyph-name="grave" unicode="`" horiz-adv-x="130" 
d="M101 588l-139 144h29l125 -144h-15z" />
    <glyph glyph-name="a" unicode="a" horiz-adv-x="481" 
d="M74 355h-20q4 76 54 123.5t142 47.5q166 0 170 -147v-327q0 -18 10.5 -26.5t25 -7.5t29.5 2v-20q-10 -1 -30 -1q-55 0 -55 51v67h-2q-17 -53 -72.5 -91t-131.5 -38q-79 0 -125.5 36t-46.5 103q0 37 10.5 64.5t26.5 43.5t41 26t47.5 14t51.5 6q125 7 152 15q46 24 49 68
q0 28 -4.5 49t-18.5 44t-46 36t-81 13q-80 0 -125.5 -39t-50.5 -112zM400 207v95h-2q-5 -8 -14.5 -14t-23 -10t-26 -6.5t-32 -4t-33 -2.5t-36 -2t-34.5 -2q-35 -2 -59.5 -8t-48.5 -19.5t-36.5 -40t-12.5 -66.5q0 -50 36 -84.5t114 -34.5q96 0 152 59t56 140z" />
    <glyph glyph-name="b" unicode="b" horiz-adv-x="537" 
d="M75 714v-344h2q18 72 72 114t134 42q102 0 160.5 -78t58.5 -192q0 -118 -59.5 -193t-159.5 -75q-76 0 -130.5 43t-75.5 113h-2v-144h-20v714h20zM75 256q0 -104 56 -176t152 -72q95 0 147 71.5t52 176.5q0 63 -19.5 118t-66.5 93.5t-113 38.5q-95 0 -151.5 -66
t-56.5 -184z" />
    <glyph glyph-name="c" unicode="c" 
d="M449 175h20q-8 -86 -65.5 -136.5t-144.5 -50.5q-106 0 -167 74t-61 184q0 119 61.5 199.5t178.5 80.5q75 0 130 -44.5t64 -123.5h-20q-12 72 -59.5 110t-114.5 38q-59 0 -103 -23t-68.5 -62t-36.5 -83t-12 -92q0 -99 55.5 -168.5t152.5 -69.5q77 0 130.5 45.5t59.5 121.5
z" />
    <glyph glyph-name="d" unicode="d" horiz-adv-x="537" 
d="M455 370v344h20v-714h-20v144h-2q-21 -70 -75.5 -113t-130.5 -43q-100 0 -159.5 75t-59.5 193q0 114 58.5 192t160.5 78q80 0 134 -42t72 -114h2zM455 256q0 118 -56.5 184t-151.5 66q-66 0 -113 -38.5t-66.5 -93.5t-19.5 -118q0 -105 52 -176.5t147 -71.5q96 0 152 72
t56 176z" />
    <glyph glyph-name="e" unicode="e" 
d="M475 253h-430q2 -112 51 -178.5t152 -66.5q82 0 135 43.5t66 126.5h20q-10 -87 -70.5 -138.5t-148.5 -51.5q-113 -2 -169 72.5t-56 196.5q0 123 66.5 196t158.5 73q113 0 171 -79.5t54 -193.5zM45 273h410q0 99 -53.5 166t-149.5 67q-85 0 -143 -63.5t-64 -169.5z" />
    <glyph glyph-name="f" unicode="f" horiz-adv-x="204" 
d="M87 494h-88v20h88v114q0 29 9 47.5t26 26.5t31 10t35 2q8 0 16 -0.5t16 -2t11 -1.5v-20q-25 4 -47 4q-46 0 -61.5 -16.5t-15.5 -56.5v-107h111v-20h-111v-494h-20v494z" />
    <glyph glyph-name="g" unicode="g" horiz-adv-x="519" 
d="M446 17v155h-2q-16 -66 -74 -105t-128 -39q-102 0 -158 70.5t-56 175.5q0 109 58 180.5t163 71.5q72 0 125 -42t70 -107h2v137h20v-497q0 -104 -55.5 -155t-158.5 -51q-84 0 -139 40t-57 122h20q2 -72 51 -107t124 -35q195 0 195 186zM445 274q0 95 -52 163.5t-144 68.5
q-96 0 -148.5 -66.5t-52.5 -165.5t51 -162.5t142 -63.5q96 0 150 64.5t54 161.5z" />
    <glyph glyph-name="h" unicode="h" 
d="M55 0v714h20v-327h2q14 62 63 100.5t122 38.5q82 0 132.5 -48.5t50.5 -136.5v-341h-20v338q0 84 -46 126t-117 42q-88 0 -137.5 -62t-49.5 -153v-291h-20z" />
    <glyph glyph-name="i" unicode="i" horiz-adv-x="130" 
d="M75 714v-101h-20v101h20zM75 514v-514h-20v514h20z" />
    <glyph glyph-name="j" unicode="j" horiz-adv-x="130" 
d="M75 714v-101h-20v101h20zM75 514v-589q0 -65 -28.5 -83.5t-95.5 -18.5v20q63 0 83.5 14.5t20.5 74.5v582h20z" />
    <glyph glyph-name="k" unicode="k" horiz-adv-x="444" 
d="M208 304l-133 -110v-194h-20v714h20v-495l355 295h29l-236 -196l253 -318h-27z" />
    <glyph glyph-name="l" unicode="l" horiz-adv-x="130" 
d="M55 0v714h20v-714h-20z" />
    <glyph glyph-name="m" unicode="m" horiz-adv-x="778" 
d="M55 0v514h20v-127h2q14 60 59.5 99.5t104.5 39.5q59 2 100 -30t54 -90h2q15 54 59.5 87t103.5 33q88 0 125.5 -49t37.5 -139v-338h-20v338q0 82 -32 125t-111 43q-73 0 -117 -52.5t-44 -127.5v-326h-20v330q0 83 -29.5 129.5t-108.5 46.5q-74 0 -120 -63t-46 -152v-291
h-20z" />
    <glyph glyph-name="n" unicode="n" 
d="M55 0v514h20v-127h2q14 62 63 100.5t122 38.5q82 0 132.5 -48.5t50.5 -136.5v-341h-20v338q0 84 -46 126t-117 42q-88 0 -137.5 -62t-49.5 -153v-291h-20z" />
    <glyph glyph-name="o" unicode="o" horiz-adv-x="519" 
d="M28 257q0 112 62 190.5t170 78.5q107 0 169 -79t62 -190q0 -112 -62 -190.5t-170 -78.5t-169.5 78.5t-61.5 190.5zM48 257q0 -104 56 -176.5t156 -72.5q98 0 154.5 72.5t56.5 176.5q0 102 -56.5 175.5t-154.5 73.5q-99 0 -155.5 -73t-56.5 -176z" />
    <glyph glyph-name="p" unicode="p" horiz-adv-x="537" 
d="M75 144v-321h-20v691h20v-144h2q21 70 75.5 113t130.5 43q100 0 159.5 -75t59.5 -193q0 -114 -58.5 -192t-160.5 -78q-80 0 -134 42t-72 114h-2zM283 8q66 0 113 38.5t66.5 93.5t19.5 118q0 105 -52 176.5t-147 71.5q-96 0 -152 -72t-56 -176q0 -118 56.5 -184t151.5 -66
z" />
    <glyph glyph-name="q" unicode="q" horiz-adv-x="537" 
d="M455 370v144h20v-691h-20v321h-2q-18 -72 -72 -114t-134 -42q-102 0 -160.5 78t-58.5 192q0 118 59.5 193t159.5 75q76 0 130.5 -43t75.5 -113h2zM455 258q0 104 -56 176t-152 72q-95 0 -147 -71.5t-52 -176.5q0 -63 19.5 -118t66.5 -93.5t113 -38.5q95 0 151.5 66
t56.5 184z" />
    <glyph glyph-name="r" unicode="r" horiz-adv-x="259" 
d="M75 291v-291h-20v514h20v-127h2q16 63 66 102t136 37v-20q-67 4 -114.5 -27.5t-68.5 -80t-21 -107.5z" />
    <glyph glyph-name="s" unicode="s" horiz-adv-x="463" 
d="M410 362h-20q0 144 -166 144q-50 0 -84 -13.5t-47.5 -35t-18 -35.5t-4.5 -25q0 -66 57 -90q18 -7 132 -38q27 -7 35 -9t32 -10t32.5 -13.5t25 -16.5t22.5 -22.5t12 -29t6 -37.5q0 -49 -28.5 -82.5t-69 -47t-88.5 -13.5q-208 0 -208 188h20q0 -168 188 -168q65 0 115.5 30
t50.5 91q0 31 -11.5 52t-40.5 35t-47 20t-62 16q-11 3 -16 4q-81 20 -115 35q-62 27 -62 106q0 50 43 89.5t131 39.5q186 0 186 -164z" />
    <glyph glyph-name="t" unicode="t" horiz-adv-x="241" 
d="M226 494h-116v-394q0 -27 6 -44.5t17.5 -24.5t21 -9t24.5 -2q37 0 44 3v-20q-36 -3 -49 -3q-84 0 -84 96v398h-95v20h95v162h20v-162h116v-20z" />
    <glyph glyph-name="u" unicode="u" 
d="M445 514v-514h-20v127h-2q-14 -62 -63 -100.5t-122 -38.5q-82 0 -132.5 48.5t-50.5 136.5v341h20v-338q0 -84 46 -126t117 -42q88 0 137.5 62t49.5 153v291h20z" />
    <glyph glyph-name="v" unicode="v" horiz-adv-x="407" 
d="M213 20l184 494h22l-194 -514h-25l-212 514h24l199 -494h2z" />
    <glyph glyph-name="w" unicode="w" horiz-adv-x="685" 
d="M517 20l156 494h20l-164 -514h-26l-160 494h-2l-161 -494h-28l-160 514h20l153 -494h2l159 494h31l158 -494h2z" />
    <glyph glyph-name="x" unicode="x" horiz-adv-x="407" 
d="M203 281l177 233h24l-188 -248l206 -266h-25l-194 251l-193 -251h-25l206 266l-187 248h26z" />
    <glyph glyph-name="y" unicode="y" horiz-adv-x="407" 
d="M214 27l184 487h21l-237 -619q-10 -25 -23.5 -40t-33 -22t-35.5 -8.5t-44 -1.5v20q56 0 79.5 11t40.5 55l37 96l-215 509h22z" />
    <glyph glyph-name="z" unicode="z" horiz-adv-x="407" 
d="M26 20h376v-20h-397v25l360 469h-333v20h354v-25z" />
    <glyph glyph-name="braceleft" unicode="{" horiz-adv-x="333" 
d="M280 -177h-50q-41 0 -57 26t-16 85v163q0 65 -15 105t-57 68v20q32 6 52 55t20 112v165q0 59 16 84t57 25h50v-20h-48q-31 0 -43 -23t-12 -84v-164q0 -51 -18.5 -99.5t-53.5 -62.5q33 -16 52.5 -61t19.5 -103v-162q0 -64 12.5 -86.5t42.5 -22.5h48v-20z" />
    <glyph glyph-name="bar" unicode="|" horiz-adv-x="222" 
d="M121 -214h-20v1000h20v-1000z" />
    <glyph glyph-name="braceright" unicode="}" horiz-adv-x="333" 
d="M53 731h50q41 0 57 -26t16 -85v-163q0 -66 15 -106.5t57 -66.5v-20q-32 -6 -52 -55t-20 -112v-165q0 -59 -16 -84t-57 -25h-50v20h48q31 0 43 23t12 84v164q0 51 18.5 99.5t53.5 62.5q-33 16 -52.5 61t-19.5 103v162q0 64 -13 86.5t-42 22.5h-48v20z" />
    <glyph glyph-name="asciitilde" unicode="~" horiz-adv-x="600" 
d="M503 301l20 -6q-17 -27 -29.5 -42.5t-34 -29.5t-45.5 -14q-12 0 -25.5 3.5t-21.5 6.5t-26 11t-24 11q-3 1 -20 9.5t-24 11t-21.5 7.5t-28 7t-28.5 2q-57 0 -98 -73l-20 6q46 87 118 87q40 3 117 -34q82 -35 103 -35q19 0 37 13t25.5 23t25.5 36z" />
    <glyph glyph-name="uni00A0" unicode="&#xa0;" horiz-adv-x="278" 
 />
    <glyph glyph-name="exclamdown" unicode="&#xa1;" horiz-adv-x="185" 
d="M83 542h20v-98h-20v98zM83 360h20v-537h-20v537z" />
    <glyph glyph-name="cent" unicode="&#xa2;" horiz-adv-x="556" 
d="M292 505v-497h5q73 0 122.5 47t57.5 120h20q-11 -87 -66 -136.5t-139 -50.5v-109h-20v109q-102 4 -157.5 82t-55.5 188q0 106 56.5 184.5t156.5 82.5v88h20v-88q81 -2 136 -45.5t64 -121.5h-20q-11 70 -59 107.5t-121 39.5zM272 8v497q-93 -4 -143 -76.5t-50 -170.5
q0 -100 50 -173t143 -77z" />
    <glyph glyph-name="sterling" unicode="&#xa3;" horiz-adv-x="556" 
d="M138 365h158v-20h-149q30 -53 30 -136q0 -107 -99 -191l2 -2q49 37 102 37q29 0 99 -24q66 -26 96 -26q31 0 59 12.5t44.5 26t49.5 44.5l13 -14q-43 -49 -81 -69t-85 -20q-37 0 -100 25q-6 2 -23.5 8t-26 9t-21.5 5.5t-24 2.5q-62 0 -125 -50l-18 20q118 102 118 206
q0 80 -32 136h-76v20h66q-4 7 -17 31t-19.5 37.5t-16 35t-13.5 40.5t-4 36q0 91 65.5 138.5t160.5 47.5q116 0 179 -68t51 -183h-20q10 109 -48.5 170t-161.5 61q-86 0 -146 -42t-60 -124q0 -21 8.5 -47.5t17 -44t25.5 -47.5t22 -41z" />
    <glyph glyph-name="currency" unicode="&#xa4;" horiz-adv-x="556" 
d="M446 522l57 57l14 -14l-57 -57q66 -70 66 -168q0 -96 -66 -168l57 -57l-14 -14l-57 57q-70 -64 -168 -66q-96 0 -168 66l-57 -57l-14 14l57 57q-66 72 -66 168q2 98 66 168l-57 57l14 14l57 -57q72 66 168 66q98 0 168 -66zM506 340q0 94 -67 161t-161 67t-161 -67
t-67 -161t67 -161t161 -67t161 67t67 161z" />
    <glyph glyph-name="yen" unicode="&#xa5;" horiz-adv-x="556" 
d="M287 305v-102h147v-20h-147v-183h-20v183h-147v20h147v102h-147v20h138l-237 389h22l234 -383h2l234 383h22l-237 -389h136v-20h-147z" />
    <glyph glyph-name="brokenbar" unicode="&#xa6;" horiz-adv-x="222" 
d="M101 661h20v-250h-20v250zM121 161v-250h-20v250h20z" />
    <glyph glyph-name="section" unicode="&#xa7;" horiz-adv-x="556" 
d="M442 546h-20q-2 79 -40.5 122t-112.5 43q-51 0 -95 -27.5t-41 -87.5q3 -59 57 -99q28 -20 72.5 -45t62.5 -36q106 -68 140 -110t34 -102q0 -48 -39.5 -87t-77.5 -49q64 -53 59 -123q-6 -66 -51.5 -100t-111.5 -34q-85 0 -131 50.5t-44 143.5h20q-1 -81 36.5 -127
t118.5 -47q70 0 106.5 36t36.5 78t-14.5 67.5t-65.5 61.5q-23 17 -85.5 55.5t-90.5 57.5q-66 44 -87 80t-21 83q0 46 32.5 84t76.5 55q-53 45 -53 109q0 39 16.5 67.5t43 41.5t50.5 18.5t48 5.5q78 0 124.5 -50.5t46.5 -134.5zM479 205q0 51 -32.5 90t-132.5 104
q-15 10 -40.5 25t-53 30.5t-36.5 20.5q-34 -9 -70.5 -43.5t-36.5 -89.5q0 -76 100 -139q122 -77 186 -121q38 8 77 42t39 81z" />
    <glyph glyph-name="dieresis" unicode="&#xa8;" horiz-adv-x="130" 
d="M153 614h-20v81h20v-81zM-3 614h-20v81h20v-81z" />
    <glyph glyph-name="copyright" unicode="&#xa9;" horiz-adv-x="800" 
d="M26 357q0 155 109.5 264.5t264.5 109.5t264.5 -109.5t109.5 -264.5t-109.5 -264.5t-264.5 -109.5t-264.5 109.5t-109.5 264.5zM46 357q0 -148 103 -251t251 -103q147 0 250.5 103.5t103.5 250.5q0 146 -104 250t-250 104q-147 0 -250.5 -103.5t-103.5 -250.5zM593 428
h-20q-9 63 -55.5 97t-109.5 34q-91 0 -144 -58.5t-53 -148.5q0 -91 54.5 -151.5t145.5 -60.5q57 0 102 36t60 100h20q-16 -70 -65 -113t-117 -43q-99 0 -159.5 66t-60.5 165q0 101 58.5 164.5t158.5 63.5q73 0 124.5 -40t60.5 -111z" />
    <glyph glyph-name="ordfeminine" unicode="&#xaa;" horiz-adv-x="300" 
d="M300 394v-20h-19q-35 0 -35 31v41h-2v-7q-25 -72 -132 -72q-48 0 -80 21t-32 63q0 23 7.5 40.5t18 27t28.5 15.5t32.5 8t36.5 4q8 0 25.5 0.5t26 1t22 2t20.5 4.5t15 7.5t11 12t3 17.5q0 44 -23 62.5t-74 18.5q-97 0 -108 -84h-20q11 104 128 104q113 0 117 -89v-190
q0 -25 34 -19zM246 504v48h-2q-9 -16 -46.5 -21t-75.5 -5t-69.5 -17.5t-32.5 -57.5q0 -33 27 -48.5t65 -15.5q63 0 98.5 33t35.5 84z" />
    <glyph glyph-name="guillemotleft" unicode="&#xab;" horiz-adv-x="352" 
d="M262 156v-35l-103 139v16l103 139v-35l-83 -112zM169 156v-35l-103 139v16l103 139v-35l-83 -112z" />
    <glyph glyph-name="logicalnot" unicode="&#xac;" horiz-adv-x="600" 
d="M532 93v247h-484v20h504v-267h-20z" />
    <glyph glyph-name="uni00AD" unicode="&#xad;" horiz-adv-x="333" 
d="M79 258v20h175v-20h-175z" />
    <glyph glyph-name="registered" unicode="&#xae;" horiz-adv-x="800" 
d="M26 357q0 155 109.5 264.5t264.5 109.5t264.5 -109.5t109.5 -264.5t-109.5 -264.5t-264.5 -109.5t-264.5 109.5t-109.5 264.5zM46 357q0 -148 103 -251t251 -103q147 0 250.5 103.5t103.5 250.5q0 146 -104 250t-250 104q-147 0 -250.5 -103.5t-103.5 -250.5zM274 135
v430h141q142 0 142 -116q0 -52 -31.5 -80t-80.5 -32l132 -202h-25l-129 199h-129v-199h-20zM294 354h104q139 0 139 95q0 96 -124 96h-119v-191z" />
    <glyph glyph-name="macron" unicode="&#xaf;" horiz-adv-x="130" 
d="M181 660v-20h-232v20h232z" />
    <glyph glyph-name="degree" unicode="&#xb0;" horiz-adv-x="400" 
d="M343 549q0 -60 -41.5 -102.5t-101.5 -42.5t-101.5 41.5t-41.5 103.5q0 58 42 100.5t101 42.5t101 -42.5t42 -100.5zM323 549q0 51 -35 87t-88 36q-49 0 -86 -37.5t-37 -85.5q0 -53 36.5 -89t86.5 -36q52 0 87.5 36t35.5 89z" />
    <glyph glyph-name="plusminus" unicode="&#xb1;" horiz-adv-x="600" 
d="M290 308v198h20v-198h242v-20h-242v-198h-20v198h-242v20h242zM48 0v20h504v-20h-504z" />
    <glyph glyph-name="uni00B2" unicode="&#xb2;" horiz-adv-x="350" 
d="M67 696h-20q0 61 36 97t98 36q55 0 89.5 -33t34.5 -86q0 -41 -23.5 -72.5t-57.5 -53t-69 -43t-61.5 -53t-31.5 -71.5h242v-20h-263q0 49 25 86.5t61 61t72 45t61 51.5t25 68q0 47 -28.5 73.5t-75.5 26.5q-53 0 -83.5 -30t-30.5 -83z" />
    <glyph glyph-name="uni00B3" unicode="&#xb3;" horiz-adv-x="350" 
d="M147 611v20h38q36 0 64.5 23t28.5 64q0 43 -26 67t-73 24q-107 0 -113 -102h-20q2 55 36.5 88.5t96.5 33.5q55 0 87 -30t32 -81q0 -35 -20.5 -59.5t-56.5 -35.5q43 -8 68.5 -37.5t25.5 -71.5q0 -60 -39.5 -93t-101.5 -33q-64 0 -101 33.5t-37 97.5h20q0 -111 118 -111
q54 0 87.5 27.5t33.5 78.5q0 43 -29.5 70t-80.5 27h-38z" />
    <glyph glyph-name="acute" unicode="&#xb4;" horiz-adv-x="130" 
d="M142 732h29l-146 -144h-15z" />
    <glyph glyph-name="uni00B5" unicode="&#xb5;" 
d="M445 514v-514h-20v127h-2q-14 -62 -63 -100.5t-122 -38.5q-122 0 -163 97v-262h-20v691h20v-338q0 -84 46 -126t117 -42q88 0 137.5 62t49.5 153v291h20z" />
    <glyph glyph-name="paragraph" unicode="&#xb6;" horiz-adv-x="600" 
d="M289 714h202v-854h-20v834h-163v-834h-20v468q-97 0 -159.5 55t-62.5 135q0 95 58.5 145.5t164.5 50.5z" />
    <glyph glyph-name="periodcentered" unicode="&#xb7;" horiz-adv-x="278" 
d="M107 340q0 14 9 23t23 9t23 -9t9 -23t-9 -23t-23 -9t-23 9t-9 23z" />
    <glyph glyph-name="cedilla" unicode="&#xb8;" horiz-adv-x="130" 
d="M-17 -170l9 19q36 -17 72 -17q31 0 49.5 14.5t18.5 38.5q0 21 -14 33t-38 12q-26 0 -54 -14l-14 11l56 73h20l-42 -57q16 7 35 7q37 0 56 -17.5t19 -46.5q0 -33 -25.5 -53.5t-66.5 -20.5q-45 0 -81 18z" />
    <glyph glyph-name="uni00B9" unicode="&#xb9;" horiz-adv-x="350" 
d="M66 708v20q33 11 68.5 36.5t53.5 55.5h20v-423h-20v394q-13 -21 -50.5 -47t-71.5 -36z" />
    <glyph glyph-name="ordmasculine" unicode="&#xba;" horiz-adv-x="300" 
d="M0 531q0 67 40.5 114t110.5 47q71 0 110.5 -47t39.5 -114q0 -68 -40 -116t-111 -48q-69 0 -109.5 48.5t-40.5 115.5zM20 531q0 -58 36 -101t95 -43t94.5 43.5t35.5 100.5q0 56 -35.5 98.5t-94.5 42.5t-95 -42.5t-36 -98.5z" />
    <glyph glyph-name="guillemotright" unicode="&#xbb;" horiz-adv-x="352" 
d="M183 380v35l103 -139v-16l-103 -139v35l83 112zM90 380v35l103 -139v-16l-103 -139v35l83 112z" />
    <glyph glyph-name="onequarter" unicode="&#xbc;" horiz-adv-x="834" 
d="M125 -34l476 748h23l-476 -748h-23zM64 585v20q33 11 68.5 36.5t53.5 55.5h20v-423h-20v394q-13 -21 -50.5 -47t-71.5 -36zM660 0v103h-220v20l223 300h17v-300h70v-20h-70v-103h-20zM660 388l-197 -265h197v265z" />
    <glyph glyph-name="onehalf" unicode="&#xbd;" horiz-adv-x="834" 
d="M95 -34l476 748h23l-476 -748h-23zM64 585v20q33 11 68.5 36.5t53.5 55.5h20v-423h-20v394q-13 -21 -50.5 -47t-71.5 -36zM511 299h-20q0 61 36 97t98 36q55 0 89.5 -33t34.5 -86q0 -41 -23.5 -72.5t-57.5 -53t-69 -43t-61.5 -53t-31.5 -71.5h242v-20h-263q0 49 25 86.5
t61 61t72 45t61 51.5t25 68q0 47 -28.5 73.5t-75.5 26.5q-53 0 -83.5 -30t-30.5 -83z" />
    <glyph glyph-name="threequarters" unicode="&#xbe;" horiz-adv-x="834" 
d="M215 -34l476 748h23l-476 -748h-23zM186 488v20h38q36 0 64.5 23t28.5 64q0 43 -26 67t-73 24q-107 0 -113 -102h-20q2 55 36.5 88.5t96.5 33.5q55 0 87 -30t32 -81q0 -35 -20.5 -59.5t-56.5 -35.5q43 -8 68.5 -37.5t25.5 -71.5q0 -60 -39.5 -93t-101.5 -33
q-64 0 -101 33.5t-37 97.5h20q0 -111 118 -111q54 0 87.5 27.5t33.5 78.5q0 43 -29.5 70t-80.5 27h-38zM680 0v103h-220v20l223 300h17v-300h70v-20h-70v-103h-20zM680 388l-197 -265h197v265z" />
    <glyph glyph-name="questiondown" unicode="&#xbf;" 
d="M248 542h20v-98h-20v98zM445 49h20q4 -106 -54.5 -172t-162.5 -66q-85 0 -141 44t-56 122q0 16 2 31.5t6.5 29t9 24t12.5 22t12.5 18.5t15 17t14 13.5t14 13t11.5 10.5q58 55 78.5 95t20.5 109h20q0 -68 -21 -113t-77 -99q-1 -1 -16 -13.5t-26 -25t-25.5 -32t-22.5 -45.5
t-8 -55q0 -69 49.5 -107.5t127.5 -38.5q97 0 149 59.5t48 158.5z" />
    <glyph glyph-name="Agrave" unicode="&#xc0;" horiz-adv-x="575" 
d="M11 0h-23l290 714h26l282 -714h-22l-94 235h-364zM114 255h348l-170 439h-2zM306 778l-139 144h29l125 -144h-15z" />
    <glyph glyph-name="Aacute" unicode="&#xc1;" horiz-adv-x="575" 
d="M11 0h-23l290 714h26l282 -714h-22l-94 235h-364zM114 255h348l-170 439h-2zM390 922h29l-146 -144h-15z" />
    <glyph glyph-name="Acircumflex" unicode="&#xc2;" horiz-adv-x="575" 
d="M11 0h-23l290 714h26l282 -714h-22l-94 235h-364zM114 255h348l-170 439h-2zM412 778h-20l-102 125l-100 -125h-20l113 144h15z" />
    <glyph glyph-name="Atilde" unicode="&#xc3;" horiz-adv-x="575" 
d="M11 0h-23l290 714h26l282 -714h-22l-94 235h-364zM114 255h348l-170 439h-2zM179 805h-20q2 31 21 55t47 24q24 0 66 -29t61 -29q39 0 49 55h20q-11 -75 -69 -75q-26 0 -66 29t-61 29t-33.5 -18t-14.5 -41z" />
    <glyph glyph-name="Adieresis" unicode="&#xc4;" horiz-adv-x="575" 
d="M11 0h-23l290 714h26l282 -714h-22l-94 235h-364zM114 255h348l-170 439h-2zM379 804h-20v81h20v-81zM223 804h-20v81h20v-81z" />
    <glyph glyph-name="Aring" unicode="&#xc5;" horiz-adv-x="575" 
d="M379 850q0 -36 -26 -62t-62 -26t-62 26t-26 62t26 62t62 26t62 -26t26 -62zM359 850q0 28 -20 48t-48 20t-48 -20t-20 -48t20 -48t48 -20t48 20t20 48zM11 0h-23l290 714h26l282 -714h-22l-94 235h-364zM114 255h348l-170 439h-2z" />
    <glyph glyph-name="AE" unicode="&#xc6;" horiz-adv-x="852" 
d="M423 274h-268l-145 -274h-22l378 714h469v-20h-392v-312h360v-20h-360v-342h392v-20h-412v274zM423 696h-47l-211 -402h258v402z" />
    <glyph glyph-name="Ccedilla" unicode="&#xc7;" horiz-adv-x="685" 
d="M642 280h20q-19 -134 -101 -215.5t-214 -81.5l-29 -40q16 7 35 7q37 0 56 -17.5t19 -46.5q0 -33 -25.5 -53.5t-66.5 -20.5q-45 0 -81 18l9 19q36 -17 72 -17q31 0 49.5 14.5t18.5 38.5q0 21 -14 33t-38 12q-26 0 -54 -14l-14 11l43 57q-134 8 -218 110.5t-84 256.5
q0 54 11.5 106t37.5 102t63.5 88t95.5 61t128 23q67 0 123 -23.5t89.5 -59.5t52.5 -74.5t20 -73.5h-20q-6 82 -80 146.5t-185 64.5q-68 0 -123 -23.5t-90 -60.5t-59 -85.5t-34 -96t-10 -94.5q0 -143 82 -245.5t221 -102.5q124 0 201 77t93 200z" />
    <glyph glyph-name="Egrave" unicode="&#xc8;" horiz-adv-x="537" 
d="M54 0v714h474v-20h-454v-312h427v-20h-427v-342h458v-20h-478zM307 778l-139 144h29l125 -144h-15z" />
    <glyph glyph-name="Eacute" unicode="&#xc9;" horiz-adv-x="537" 
d="M54 0v714h474v-20h-454v-312h427v-20h-427v-342h458v-20h-478zM371 922h29l-146 -144h-15z" />
    <glyph glyph-name="Ecircumflex" unicode="&#xca;" horiz-adv-x="537" 
d="M54 0v714h474v-20h-454v-312h427v-20h-427v-342h458v-20h-478zM403 778h-20l-102 125l-100 -125h-20l113 144h15z" />
    <glyph glyph-name="Edieresis" unicode="&#xcb;" horiz-adv-x="537" 
d="M54 0v714h474v-20h-454v-312h427v-20h-427v-342h458v-20h-478zM370 804h-20v81h20v-81zM214 804h-20v81h20v-81z" />
    <glyph glyph-name="Igrave" unicode="&#xcc;" horiz-adv-x="128" 
d="M54 0v714h20v-714h-20zM64 778l-139 144h29l125 -144h-15z" />
    <glyph glyph-name="Iacute" unicode="&#xcd;" horiz-adv-x="128" 
d="M54 0v714h20v-714h-20zM178 922h29l-146 -144h-15z" />
    <glyph glyph-name="Icircumflex" unicode="&#xce;" horiz-adv-x="128" 
d="M54 0v714h20v-714h-20zM185 778h-20l-102 125l-100 -125h-20l113 144h15z" />
    <glyph glyph-name="Idieresis" unicode="&#xcf;" horiz-adv-x="128" 
d="M54 0v714h20v-714h-20zM152 804h-20v81h20v-81zM-4 804h-20v81h20v-81z" />
    <glyph glyph-name="Eth" unicode="&#xd0;" horiz-adv-x="648" 
d="M54 362h-80v20h80v332h250q58 0 108.5 -17t96 -55.5t72.5 -111.5t27 -173q0 -93 -27.5 -163.5t-75.5 -111.5t-106.5 -61.5t-125.5 -20.5h-219v362zM331 362h-257v-342h204q135 0 222.5 86.5t87.5 250.5q0 77 -16.5 137t-43.5 97t-65.5 61t-78 33t-85.5 9h-225v-312h257
v-20z" />
    <glyph glyph-name="Ntilde" unicode="&#xd1;" horiz-adv-x="648" 
d="M54 0v714h30l488 -689h2v689h20v-714h-30l-488 689h-2v-689h-20zM213 805h-20q2 31 21 55t47 24q24 0 66 -29t61 -29q39 0 49 55h20q-11 -75 -69 -75q-26 0 -66 29t-61 29t-33.5 -18t-14.5 -41z" />
    <glyph glyph-name="Ograve" unicode="&#xd2;" horiz-adv-x="721" 
d="M32 357q0 159 87.5 266.5t241.5 107.5t241.5 -107.5t87.5 -266.5t-87.5 -266.5t-241.5 -107.5t-241.5 107.5t-87.5 266.5zM52 357q2 -157 84.5 -255.5t224.5 -98.5q141 0 224 98.5t85 255.5q-2 157 -85 255.5t-224 98.5q-142 0 -224.5 -98.5t-84.5 -255.5zM387 778
l-139 144h29l125 -144h-15z" />
    <glyph glyph-name="Oacute" unicode="&#xd3;" horiz-adv-x="721" 
d="M32 357q0 159 87.5 266.5t241.5 107.5t241.5 -107.5t87.5 -266.5t-87.5 -266.5t-241.5 -107.5t-241.5 107.5t-87.5 266.5zM52 357q2 -157 84.5 -255.5t224.5 -98.5q141 0 224 98.5t85 255.5q-2 157 -85 255.5t-224 98.5q-142 0 -224.5 -98.5t-84.5 -255.5zM451 922h29
l-146 -144h-15z" />
    <glyph glyph-name="Ocircumflex" unicode="&#xd4;" horiz-adv-x="721" 
d="M32 357q0 159 87.5 266.5t241.5 107.5t241.5 -107.5t87.5 -266.5t-87.5 -266.5t-241.5 -107.5t-241.5 107.5t-87.5 266.5zM52 357q2 -157 84.5 -255.5t224.5 -98.5q141 0 224 98.5t85 255.5q-2 157 -85 255.5t-224 98.5q-142 0 -224.5 -98.5t-84.5 -255.5zM486 778h-20
l-102 125l-100 -125h-20l113 144h15z" />
    <glyph glyph-name="Otilde" unicode="&#xd5;" horiz-adv-x="721" 
d="M32 357q0 159 87.5 266.5t241.5 107.5t241.5 -107.5t87.5 -266.5t-87.5 -266.5t-241.5 -107.5t-241.5 107.5t-87.5 266.5zM52 357q2 -157 84.5 -255.5t224.5 -98.5q141 0 224 98.5t85 255.5q-2 157 -85 255.5t-224 98.5q-142 0 -224.5 -98.5t-84.5 -255.5zM250 805h-20
q2 31 21 55t47 24q24 0 66 -29t61 -29q39 0 49 55h20q-11 -75 -69 -75q-26 0 -66 29t-61 29t-33.5 -18t-14.5 -41z" />
    <glyph glyph-name="Odieresis" unicode="&#xd6;" horiz-adv-x="721" 
d="M32 357q0 159 87.5 266.5t241.5 107.5t241.5 -107.5t87.5 -266.5t-87.5 -266.5t-241.5 -107.5t-241.5 107.5t-87.5 266.5zM52 357q2 -157 84.5 -255.5t224.5 -98.5q141 0 224 98.5t85 255.5q-2 157 -85 255.5t-224 98.5q-142 0 -224.5 -98.5t-84.5 -255.5zM450 804h-20
v81h20v-81zM294 804h-20v81h20v-81z" />
    <glyph glyph-name="multiply" unicode="&#xd7;" horiz-adv-x="600" 
d="M286 253l-190 190l14 13l189 -191l191 191l14 -13l-191 -190l191 -190l-14 -14l-191 191l-189 -191l-14 14z" />
    <glyph glyph-name="Oslash" unicode="&#xd8;" horiz-adv-x="721" 
d="M40 17l73 81q-81 104 -81 259q0 159 87.5 266.5t241.5 107.5q143 0 234 -99l59 65l15 -12l-61 -68q82 -101 82 -260t-87.5 -266.5t-241.5 -107.5q-147 0 -235 101l-71 -79zM127 114l454 503q-83 94 -220 94q-142 0 -224.5 -98.5t-84.5 -255.5q2 -150 75 -243zM594 601
l-454 -502q82 -96 221 -96q141 0 224 98.5t85 255.5q-2 151 -76 244z" />
    <glyph glyph-name="Ugrave" unicode="&#xd9;" horiz-adv-x="632" 
d="M558 266v448h20v-448q0 -142 -67 -212.5t-195 -70.5t-195 70.5t-67 212.5v448h20v-448q0 -263 242 -263t242 263zM342 778l-139 144h29l125 -144h-15z" />
    <glyph glyph-name="Uacute" unicode="&#xda;" horiz-adv-x="632" 
d="M558 266v448h20v-448q0 -142 -67 -212.5t-195 -70.5t-195 70.5t-67 212.5v448h20v-448q0 -263 242 -263t242 263zM406 922h29l-146 -144h-15z" />
    <glyph glyph-name="Ucircumflex" unicode="&#xdb;" horiz-adv-x="632" 
d="M558 266v448h20v-448q0 -142 -67 -212.5t-195 -70.5t-195 70.5t-67 212.5v448h20v-448q0 -263 242 -263t242 263zM438 778h-20l-102 125l-100 -125h-20l113 144h15z" />
    <glyph glyph-name="Udieresis" unicode="&#xdc;" horiz-adv-x="632" 
d="M558 266v448h20v-448q0 -142 -67 -212.5t-195 -70.5t-195 70.5t-67 212.5v448h20v-448q0 -263 242 -263t242 263zM405 804h-20v81h20v-81zM249 804h-20v81h20v-81z" />
    <glyph glyph-name="Yacute" unicode="&#xdd;" horiz-adv-x="538" 
d="M269 322l275 392h24l-289 -413v-301h-20v301l-289 413h25zM359 922h29l-146 -144h-15z" />
    <glyph glyph-name="Thorn" unicode="&#xde;" horiz-adv-x="574" 
d="M74 590h269q104 0 160.5 -49.5t56.5 -145.5q0 -92 -62.5 -143t-164.5 -51h-259v-201h-20v714h20v-124zM74 570v-349h269q87 0 142 46.5t55 127.5q0 175 -197 175h-269z" />
    <glyph glyph-name="germandbls" unicode="&#xdf;" horiz-adv-x="481" 
d="M202 387v20q84 -2 138.5 35t54.5 119q0 66 -47 105.5t-117 39.5q-19 0 -36.5 -2.5t-40.5 -12t-39.5 -25t-28 -45t-11.5 -68.5v-553h-20v556q0 88 51.5 129t124.5 41q75 0 129.5 -45t54.5 -120q0 -64 -32.5 -107t-94.5 -54v-2q164 -16 164 -188q0 -221 -250 -210v20
q230 -14 230 190q0 53 -16.5 89t-49 54.5t-71.5 26t-93 7.5z" />
    <glyph glyph-name="agrave" unicode="&#xe0;" horiz-adv-x="481" 
d="M74 355h-20q4 76 54 123.5t142 47.5q166 0 170 -147v-327q0 -18 10.5 -26.5t25 -7.5t29.5 2v-20q-10 -1 -30 -1q-55 0 -55 51v67h-2q-17 -53 -72.5 -91t-131.5 -38q-79 0 -125.5 36t-46.5 103q0 37 10.5 64.5t26.5 43.5t41 26t47.5 14t51.5 6q125 7 152 15q46 24 49 68
q0 28 -4.5 49t-18.5 44t-46 36t-81 13q-80 0 -125.5 -39t-50.5 -112zM400 207v95h-2q-5 -8 -14.5 -14t-23 -10t-26 -6.5t-32 -4t-33 -2.5t-36 -2t-34.5 -2q-35 -2 -59.5 -8t-48.5 -19.5t-36.5 -40t-12.5 -66.5q0 -50 36 -84.5t114 -34.5q96 0 152 59t56 140zM271 588
l-139 144h29l125 -144h-15z" />
    <glyph glyph-name="aacute" unicode="&#xe1;" horiz-adv-x="481" 
d="M74 355h-20q4 76 54 123.5t142 47.5q166 0 170 -147v-327q0 -18 10.5 -26.5t25 -7.5t29.5 2v-20q-10 -1 -30 -1q-55 0 -55 51v67h-2q-17 -53 -72.5 -91t-131.5 -38q-79 0 -125.5 36t-46.5 103q0 37 10.5 64.5t26.5 43.5t41 26t47.5 14t51.5 6q125 7 152 15q46 24 49 68
q0 28 -4.5 49t-18.5 44t-46 36t-81 13q-80 0 -125.5 -39t-50.5 -112zM400 207v95h-2q-5 -8 -14.5 -14t-23 -10t-26 -6.5t-32 -4t-33 -2.5t-36 -2t-34.5 -2q-35 -2 -59.5 -8t-48.5 -19.5t-36.5 -40t-12.5 -66.5q0 -50 36 -84.5t114 -34.5q96 0 152 59t56 140zM335 732h29
l-146 -144h-15z" />
    <glyph glyph-name="acircumflex" unicode="&#xe2;" horiz-adv-x="481" 
d="M74 355h-20q4 76 54 123.5t142 47.5q166 0 170 -147v-327q0 -18 10.5 -26.5t25 -7.5t29.5 2v-20q-10 -1 -30 -1q-55 0 -55 51v67h-2q-17 -53 -72.5 -91t-131.5 -38q-79 0 -125.5 36t-46.5 103q0 37 10.5 64.5t26.5 43.5t41 26t47.5 14t51.5 6q125 7 152 15q46 24 49 68
q0 28 -4.5 49t-18.5 44t-46 36t-81 13q-80 0 -125.5 -39t-50.5 -112zM400 207v95h-2q-5 -8 -14.5 -14t-23 -10t-26 -6.5t-32 -4t-33 -2.5t-36 -2t-34.5 -2q-35 -2 -59.5 -8t-48.5 -19.5t-36.5 -40t-12.5 -66.5q0 -50 36 -84.5t114 -34.5q96 0 152 59t56 140zM367 588h-20
l-102 125l-100 -125h-20l113 144h15z" />
    <glyph glyph-name="atilde" unicode="&#xe3;" horiz-adv-x="481" 
d="M74 355h-20q4 76 54 123.5t142 47.5q166 0 170 -147v-327q0 -18 10.5 -26.5t25 -7.5t29.5 2v-20q-10 -1 -30 -1q-55 0 -55 51v67h-2q-17 -53 -72.5 -91t-131.5 -38q-79 0 -125.5 36t-46.5 103q0 37 10.5 64.5t26.5 43.5t41 26t47.5 14t51.5 6q125 7 152 15q46 24 49 68
q0 28 -4.5 49t-18.5 44t-46 36t-81 13q-80 0 -125.5 -39t-50.5 -112zM400 207v95h-2q-5 -8 -14.5 -14t-23 -10t-26 -6.5t-32 -4t-33 -2.5t-36 -2t-34.5 -2q-35 -2 -59.5 -8t-48.5 -19.5t-36.5 -40t-12.5 -66.5q0 -50 36 -84.5t114 -34.5q96 0 152 59t56 140zM134 615h-20
q2 31 21 55t47 24q24 0 66 -29t61 -29q39 0 49 55h20q-11 -75 -69 -75q-26 0 -66 29t-61 29t-33.5 -18t-14.5 -41z" />
    <glyph glyph-name="adieresis" unicode="&#xe4;" horiz-adv-x="481" 
d="M74 355h-20q4 76 54 123.5t142 47.5q166 0 170 -147v-327q0 -18 10.5 -26.5t25 -7.5t29.5 2v-20q-10 -1 -30 -1q-55 0 -55 51v67h-2q-17 -53 -72.5 -91t-131.5 -38q-79 0 -125.5 36t-46.5 103q0 37 10.5 64.5t26.5 43.5t41 26t47.5 14t51.5 6q125 7 152 15q46 24 49 68
q0 28 -4.5 49t-18.5 44t-46 36t-81 13q-80 0 -125.5 -39t-50.5 -112zM400 207v95h-2q-5 -8 -14.5 -14t-23 -10t-26 -6.5t-32 -4t-33 -2.5t-36 -2t-34.5 -2q-35 -2 -59.5 -8t-48.5 -19.5t-36.5 -40t-12.5 -66.5q0 -50 36 -84.5t114 -34.5q96 0 152 59t56 140zM334 614h-20v81
h20v-81zM178 614h-20v81h20v-81z" />
    <glyph glyph-name="aring" unicode="&#xe5;" horiz-adv-x="481" 
d="M74 355h-20q4 76 54 123.5t142 47.5q166 0 170 -147v-327q0 -18 10.5 -26.5t25 -7.5t29.5 2v-20q-10 -1 -30 -1q-55 0 -55 51v67h-2q-17 -53 -72.5 -91t-131.5 -38q-79 0 -125.5 36t-46.5 103q0 37 10.5 64.5t26.5 43.5t41 26t47.5 14t51.5 6q125 7 152 15q46 24 49 68
q0 28 -4.5 49t-18.5 44t-46 36t-81 13q-80 0 -125.5 -39t-50.5 -112zM400 207v95h-2q-5 -8 -14.5 -14t-23 -10t-26 -6.5t-32 -4t-33 -2.5t-36 -2t-34.5 -2q-35 -2 -59.5 -8t-48.5 -19.5t-36.5 -40t-12.5 -66.5q0 -50 36 -84.5t114 -34.5q96 0 152 59t56 140zM332 670
q0 -36 -26 -62t-62 -26t-62 26t-26 62t26 62t62 26t62 -26t26 -62zM312 670q0 28 -20 48t-48 20t-48 -20t-20 -48t20 -48t48 -20t48 20t20 48z" />
    <glyph glyph-name="ae" unicode="&#xe6;" horiz-adv-x="889" 
d="M84 355h-20q4 76 54 123.5t142 47.5q166 0 170 -150h2q21 67 74 108.5t131 41.5q111 0 167.5 -78.5t52.5 -194.5h-427q4 -112 52.5 -178.5t152.5 -66.5q79 0 134.5 44.5t64.5 125.5h20q-8 -84 -68.5 -137t-150.5 -53q-83 -1 -137.5 42.5t-74.5 124.5h-2
q-16 -77 -75.5 -122t-141.5 -45q-79 0 -125.5 36t-46.5 103q0 37 10.5 64.5t26.5 43.5t41 26t47.5 14t51.5 6q125 7 152 15q46 24 49 68q0 28 -4.5 49t-18.5 44t-46 36t-81 13q-80 0 -125.5 -39t-50.5 -112zM430 273h407q0 102 -51.5 167.5t-148.5 65.5q-92 0 -145.5 -62.5
t-61.5 -170.5zM410 207v95h-2q-5 -8 -14.5 -14t-23 -10t-26 -6.5t-32 -4t-33 -2.5t-36 -2t-34.5 -2q-35 -2 -59.5 -8t-48.5 -19.5t-36.5 -40t-12.5 -66.5q0 -50 36 -84.5t114 -34.5q96 0 152 59t56 140z" />
    <glyph glyph-name="ccedilla" unicode="&#xe7;" 
d="M165 -170l9 19q36 -17 72 -17q31 0 49.5 14.5t18.5 38.5q0 21 -14 33t-38 12q-26 0 -54 -14l-14 11l47 62q-99 7 -154.5 79.5t-55.5 177.5q0 119 61.5 199.5t178.5 80.5q75 0 130 -44.5t64 -123.5h-20q-12 72 -59.5 110t-114.5 38q-59 0 -103 -23t-68.5 -62t-36.5 -83
t-12 -92q0 -99 55.5 -168.5t152.5 -69.5q77 0 130.5 45.5t59.5 121.5h20q-8 -86 -64.5 -136t-143.5 -51l-33 -45q16 7 35 7q37 0 56 -17.5t19 -46.5q0 -33 -25.5 -53.5t-66.5 -20.5q-45 0 -81 18z" />
    <glyph glyph-name="egrave" unicode="&#xe8;" 
d="M475 253h-430q2 -112 51 -178.5t152 -66.5q82 0 135 43.5t66 126.5h20q-10 -87 -70.5 -138.5t-148.5 -51.5q-113 -2 -169 72.5t-56 196.5q0 123 66.5 196t158.5 73q113 0 171 -79.5t54 -193.5zM45 273h410q0 99 -53.5 166t-149.5 67q-85 0 -143 -63.5t-64 -169.5z
M279 588l-139 144h29l125 -144h-15z" />
    <glyph glyph-name="eacute" unicode="&#xe9;" 
d="M475 253h-430q2 -112 51 -178.5t152 -66.5q82 0 135 43.5t66 126.5h20q-10 -87 -70.5 -138.5t-148.5 -51.5q-113 -2 -169 72.5t-56 196.5q0 123 66.5 196t158.5 73q113 0 171 -79.5t54 -193.5zM45 273h410q0 99 -53.5 166t-149.5 67q-85 0 -143 -63.5t-64 -169.5z
M343 732h29l-146 -144h-15z" />
    <glyph glyph-name="ecircumflex" unicode="&#xea;" 
d="M475 253h-430q2 -112 51 -178.5t152 -66.5q82 0 135 43.5t66 126.5h20q-10 -87 -70.5 -138.5t-148.5 -51.5q-113 -2 -169 72.5t-56 196.5q0 123 66.5 196t158.5 73q113 0 171 -79.5t54 -193.5zM45 273h410q0 99 -53.5 166t-149.5 67q-85 0 -143 -63.5t-64 -169.5z
M375 588h-20l-102 125l-100 -125h-20l113 144h15z" />
    <glyph glyph-name="edieresis" unicode="&#xeb;" 
d="M475 253h-430q2 -112 51 -178.5t152 -66.5q82 0 135 43.5t66 126.5h20q-10 -87 -70.5 -138.5t-148.5 -51.5q-113 -2 -169 72.5t-56 196.5q0 123 66.5 196t158.5 73q113 0 171 -79.5t54 -193.5zM45 273h410q0 99 -53.5 166t-149.5 67q-85 0 -143 -63.5t-64 -169.5z
M342 614h-20v81h20v-81zM186 614h-20v81h20v-81z" />
    <glyph glyph-name="igrave" unicode="&#xec;" horiz-adv-x="130" 
d="M75 0h-20v514h20v-514zM68 588l-139 144h29l125 -144h-15z" />
    <glyph glyph-name="iacute" unicode="&#xed;" horiz-adv-x="130" 
d="M75 0h-20v514h20v-514zM176 732h29l-146 -144h-15z" />
    <glyph glyph-name="icircumflex" unicode="&#xee;" horiz-adv-x="130" 
d="M75 0h-20v514h20v-514zM186 588h-20l-102 125l-100 -125h-20l113 144h15z" />
    <glyph glyph-name="idieresis" unicode="&#xef;" horiz-adv-x="130" 
d="M75 0h-20v514h20v-514zM153 614h-20v81h20v-81zM-3 614h-20v81h20v-81z" />
    <glyph glyph-name="eth" unicode="&#xf0;" horiz-adv-x="519" 
d="M128 581l121 67q-44 35 -93 60l16 14q50 -26 96 -64l123 68l15 -16l-120 -67q107 -99 156 -192.5t49 -202.5q0 -108 -62 -183.5t-170 -75.5t-169.5 75.5t-61.5 183.5q0 107 62 183t170 76q107 0 162 -72h4q-28 55 -74.5 110.5t-86.5 88.5l-122 -68zM48 248
q0 -99 56.5 -169t155.5 -70q98 0 154.5 70t56.5 169q0 98 -56.5 168.5t-154.5 70.5q-99 0 -155.5 -70t-56.5 -169z" />
    <glyph glyph-name="ntilde" unicode="&#xf1;" 
d="M55 0v514h20v-127h2q14 62 63 100.5t122 38.5q82 0 132.5 -48.5t50.5 -136.5v-341h-20v338q0 84 -46 126t-117 42q-88 0 -137.5 -62t-49.5 -153v-291h-20zM137 615h-20q2 31 21 55t47 24q24 0 66 -29t61 -29q39 0 49 55h20q-11 -75 -69 -75q-26 0 -66 29t-61 29
t-33.5 -18t-14.5 -41z" />
    <glyph glyph-name="ograve" unicode="&#xf2;" horiz-adv-x="519" 
d="M28 257q0 112 62 190.5t170 78.5q107 0 169 -79t62 -190q0 -112 -62 -190.5t-170 -78.5t-169.5 78.5t-61.5 190.5zM48 257q0 -104 56 -176.5t156 -72.5q98 0 154.5 72.5t56.5 176.5q0 102 -56.5 175.5t-154.5 73.5q-99 0 -155.5 -73t-56.5 -176zM285 588l-139 144h29
l125 -144h-15z" />
    <glyph glyph-name="oacute" unicode="&#xf3;" horiz-adv-x="519" 
d="M28 257q0 112 62 190.5t170 78.5q107 0 169 -79t62 -190q0 -112 -62 -190.5t-170 -78.5t-169.5 78.5t-61.5 190.5zM48 257q0 -104 56 -176.5t156 -72.5q98 0 154.5 72.5t56.5 176.5q0 102 -56.5 175.5t-154.5 73.5q-99 0 -155.5 -73t-56.5 -176zM349 732h29l-146 -144
h-15z" />
    <glyph glyph-name="ocircumflex" unicode="&#xf4;" horiz-adv-x="519" 
d="M28 257q0 112 62 190.5t170 78.5q107 0 169 -79t62 -190q0 -112 -62 -190.5t-170 -78.5t-169.5 78.5t-61.5 190.5zM48 257q0 -104 56 -176.5t156 -72.5q98 0 154.5 72.5t56.5 176.5q0 102 -56.5 175.5t-154.5 73.5q-99 0 -155.5 -73t-56.5 -176zM381 588h-20l-102 125
l-100 -125h-20l113 144h15z" />
    <glyph glyph-name="otilde" unicode="&#xf5;" horiz-adv-x="519" 
d="M28 257q0 112 62 190.5t170 78.5q107 0 169 -79t62 -190q0 -112 -62 -190.5t-170 -78.5t-169.5 78.5t-61.5 190.5zM48 257q0 -104 56 -176.5t156 -72.5q98 0 154.5 72.5t56.5 176.5q0 102 -56.5 175.5t-154.5 73.5q-99 0 -155.5 -73t-56.5 -176zM148 615h-20q2 31 21 55
t47 24q24 0 66 -29t61 -29q39 0 49 55h20q-11 -75 -69 -75q-26 0 -66 29t-61 29t-33.5 -18t-14.5 -41z" />
    <glyph glyph-name="odieresis" unicode="&#xf6;" horiz-adv-x="519" 
d="M28 257q0 112 62 190.5t170 78.5q107 0 169 -79t62 -190q0 -112 -62 -190.5t-170 -78.5t-169.5 78.5t-61.5 190.5zM48 257q0 -104 56 -176.5t156 -72.5q98 0 154.5 72.5t56.5 176.5q0 102 -56.5 175.5t-154.5 73.5q-99 0 -155.5 -73t-56.5 -176zM348 614h-20v81h20v-81z
M192 614h-20v81h20v-81z" />
    <glyph glyph-name="divide" unicode="&#xf7;" horiz-adv-x="600" 
d="M264 470q0 15 10.5 25.5t25.5 10.5t25.5 -10.5t10.5 -25.5t-10.5 -25.5t-25.5 -10.5t-25.5 10.5t-10.5 25.5zM552 243h-504v20h504v-20zM264 36q0 15 10.5 25.5t25.5 10.5t25.5 -10.5t10.5 -25.5t-10.5 -25.5t-25.5 -10.5t-25.5 10.5t-10.5 25.5z" />
    <glyph glyph-name="oslash" unicode="&#xf8;" horiz-adv-x="519" 
d="M427 449l45 47l14 -14l-47 -49q52 -70 52 -176q0 -112 -62 -190.5t-170 -78.5q-106 0 -170 79l-57 -59l-14 14l60 62q-50 71 -50 173q0 112 62 190.5t170 78.5q104 0 167 -77zM92 99l320 335q-57 72 -152 72q-99 0 -155.5 -73t-56.5 -176q0 -91 44 -158zM424 418
l-320 -335q56 -75 156 -75q98 0 154.5 72.5t56.5 176.5q0 93 -47 161z" />
    <glyph glyph-name="ugrave" unicode="&#xf9;" 
d="M445 514v-514h-20v127h-2q-14 -62 -63 -100.5t-122 -38.5q-82 0 -132.5 48.5t-50.5 136.5v341h20v-338q0 -84 46 -126t117 -42q88 0 137.5 62t49.5 153v291h20zM275 588l-139 144h29l125 -144h-15z" />
    <glyph glyph-name="uacute" unicode="&#xfa;" 
d="M445 514v-514h-20v127h-2q-14 -62 -63 -100.5t-122 -38.5q-82 0 -132.5 48.5t-50.5 136.5v341h20v-338q0 -84 46 -126t117 -42q88 0 137.5 62t49.5 153v291h20zM339 732h29l-146 -144h-15z" />
    <glyph glyph-name="ucircumflex" unicode="&#xfb;" 
d="M445 514v-514h-20v127h-2q-14 -62 -63 -100.5t-122 -38.5q-82 0 -132.5 48.5t-50.5 136.5v341h20v-338q0 -84 46 -126t117 -42q88 0 137.5 62t49.5 153v291h20zM371 588h-20l-102 125l-100 -125h-20l113 144h15z" />
    <glyph glyph-name="udieresis" unicode="&#xfc;" 
d="M445 514v-514h-20v127h-2q-14 -62 -63 -100.5t-122 -38.5q-82 0 -132.5 48.5t-50.5 136.5v341h20v-338q0 -84 46 -126t117 -42q88 0 137.5 62t49.5 153v291h20zM338 614h-20v81h20v-81zM182 614h-20v81h20v-81z" />
    <glyph glyph-name="yacute" unicode="&#xfd;" horiz-adv-x="407" 
d="M214 27l184 487h21l-237 -619q-10 -25 -23.5 -40t-33 -22t-35.5 -8.5t-44 -1.5v20q56 0 79.5 11t40.5 55l37 96l-215 509h22zM300 732h29l-146 -144h-15z" />
    <glyph glyph-name="thorn" unicode="&#xfe;" horiz-adv-x="537" 
d="M75 144v-321h-20v891h20v-344h2q21 72 73 114t133 42q105 0 162 -74t57 -194q0 -75 -22 -134t-73 -97.5t-124 -38.5q-78 0 -133 42.5t-73 113.5h-2zM482 258q0 107 -50 177.5t-149 70.5q-100 0 -154 -71t-54 -177q0 -117 57.5 -183.5t150.5 -66.5q72 0 118.5 39
t63.5 92.5t17 118.5z" />
    <glyph glyph-name="ydieresis" unicode="&#xff;" horiz-adv-x="407" 
d="M214 27l184 487h21l-237 -619q-10 -25 -23.5 -40t-33 -22t-35.5 -8.5t-44 -1.5v20q56 0 79.5 11t40.5 55l37 96l-215 509h22zM299 614h-20v81h20v-81zM143 614h-20v81h20v-81z" />
    <glyph glyph-name="dotlessi" unicode="&#x131;" horiz-adv-x="130" 
d="M75 0h-20v514h20v-514z" />
    <glyph glyph-name="OE" unicode="&#x152;" horiz-adv-x="1019" 
d="M578 382h366v-20h-366v-342h414v-20h-434v65q-81 -82 -196 -82q-155 0 -242.5 106.5t-87.5 263.5q0 103 36 187t112.5 137.5t181.5 53.5q125 0 196 -82v65h434v-20h-414v-312zM558 94v529q-47 48 -90 68t-106 20q-141 0 -224.5 -97.5t-85.5 -260.5q2 -155 85 -252.5
t225 -97.5q119 0 196 91z" />
    <glyph glyph-name="oe" unicode="&#x153;" horiz-adv-x="890" 
d="M856 253h-402q-2 -245 192 -245q153 0 183 165h20q-15 -87 -66.5 -136t-136.5 -49t-137 44t-64 125h-2q-37 -169 -200 -169q-106 0 -158.5 78t-52.5 191q0 71 19 129t68.5 99t123.5 41q82 0 134.5 -48t64.5 -128h2q33 172 202 176q104 2 157 -72.5t53 -185.5v-15z
M454 273h382q-2 103 -48 168t-141 65q-184 0 -193 -233zM434 257q0 108 -45.5 178.5t-145.5 70.5q-97 0 -144 -71.5t-47 -177.5q0 -104 47 -176.5t144 -72.5q53 0 91 20t59.5 56t31 78.5t9.5 94.5z" />
    <glyph glyph-name="Scaron" unicode="&#x160;" horiz-adv-x="611" 
d="M551 514h-20q-7 197 -232 197q-41 0 -78 -8t-71 -25.5t-54.5 -51t-20.5 -79.5q0 -19 4 -35.5t9.5 -29t17 -24t20.5 -19.5t26.5 -16t28.5 -12.5t33.5 -10.5t34 -9t36.5 -8.5t36 -8.5q9 -2 38.5 -9.5t38.5 -10.5t33.5 -10.5t33.5 -12t27.5 -14t25.5 -18t19 -22t16 -28
t8 -33.5t4 -41q0 -94 -74.5 -143t-177.5 -49q-130 0 -205.5 62.5t-73.5 191.5h20q0 -234 259 -234q95 0 163.5 43.5t68.5 129.5q0 26 -7 48t-16 37.5t-27.5 28.5t-33 21t-40 16t-40.5 12t-44 10.5t-42 9.5q-114 26 -154 46q-86 44 -86 142q0 51 21.5 88t58 57t77.5 29.5
t87 9.5q241 0 252 -217zM184 922h20l102 -125l100 125h20l-113 -144h-15z" />
    <glyph glyph-name="scaron" unicode="&#x161;" horiz-adv-x="463" 
d="M410 362h-20q0 144 -166 144q-50 0 -84 -13.5t-47.5 -35t-18 -35.5t-4.5 -25q0 -66 57 -90q18 -7 132 -38q27 -7 35 -9t32 -10t32.5 -13.5t25 -16.5t22.5 -22.5t12 -29t6 -37.5q0 -49 -28.5 -82.5t-69 -47t-88.5 -13.5q-208 0 -208 188h20q0 -168 188 -168q65 0 115.5 30
t50.5 91q0 31 -11.5 52t-40.5 35t-47 20t-62 16q-11 3 -16 4q-81 20 -115 35q-62 27 -62 106q0 50 43 89.5t131 39.5q186 0 186 -164zM111 732h20l102 -125l100 125h20l-113 -144h-15z" />
    <glyph glyph-name="Ydieresis" unicode="&#x178;" horiz-adv-x="538" 
d="M269 322l275 392h24l-289 -413v-301h-20v301l-289 413h25zM358 804h-20v81h20v-81zM202 804h-20v81h20v-81z" />
    <glyph glyph-name="Zcaron" unicode="&#x17d;" 
d="M1 20h507v-20h-527v27l499 667h-471v20h491v-27zM128 922h20l102 -125l100 125h20l-113 -144h-15z" />
    <glyph glyph-name="zcaron" unicode="&#x17e;" horiz-adv-x="407" 
d="M26 20h376v-20h-397v25l360 469h-333v20h354v-25zM84 732h20l102 -125l100 125h20l-113 -144h-15z" />
    <glyph glyph-name="florin" unicode="&#x192;" horiz-adv-x="556" 
d="M281 411l-92 -466q-25 -122 -126 -122q-31 0 -50 6l5 20q21 -6 42 -6q88 0 108 106l91 462h-119l4 20h119l39 195q21 105 132 105q31 0 55 -7l-4 -19q-32 6 -53 6q-47 0 -73 -21.5t-37 -74.5l-37 -184h127l-4 -20h-127z" />
    <glyph glyph-name="circumflex" unicode="&#x2c6;" horiz-adv-x="130" 
d="M186 588h-20l-102 125l-100 -125h-20l113 144h15z" />
    <glyph glyph-name="caron" unicode="&#x2c7;" horiz-adv-x="130" 
d="M-56 732h20l102 -125l100 125h20l-113 -144h-15z" />
    <glyph glyph-name="ring" unicode="&#x2da;" horiz-adv-x="130" 
d="M153 670q0 -36 -26 -62t-62 -26t-62 26t-26 62t26 62t62 26t62 -26t26 -62zM133 670q0 28 -20 48t-48 20t-48 -20t-20 -48t20 -48t48 -20t48 20t20 48z" />
    <glyph glyph-name="tilde" unicode="&#x2dc;" horiz-adv-x="130" 
d="M-47 615h-20q2 31 21 55t47 24q24 0 66 -29t61 -29q39 0 49 55h20q-11 -75 -69 -75q-26 0 -66 29t-61 29t-33.5 -18t-14.5 -41z" />
    <glyph glyph-name="endash" unicode="&#x2013;" 
d="M0 258v20h500v-20h-500z" />
    <glyph glyph-name="emdash" unicode="&#x2014;" horiz-adv-x="1000" 
d="M870 278v-20h-740v20h740z" />
    <glyph glyph-name="quoteleft" unicode="&#x2018;" horiz-adv-x="167" 
d="M93 489h-20v118q0 52 9 72t36 35v-20q-25 -16 -25 -87v-118z" />
    <glyph glyph-name="quoteright" unicode="&#x2019;" horiz-adv-x="167" 
d="M74 714h20v-118q0 -52 -9 -72t-36 -35v20q25 16 25 87v118z" />
    <glyph glyph-name="quotesinglbase" unicode="&#x201a;" horiz-adv-x="167" 
d="M73 98h20v-98q0 -47 -10 -74.5t-35 -44.5v20q25 22 25 99v98z" />
    <glyph glyph-name="quotedblleft" unicode="&#x201c;" horiz-adv-x="278" 
d="M203 489h-20v118q0 52 9 72t36 35v-20q-25 -16 -25 -87v-118zM103 489h-20v118q0 52 9 72t36 35v-20q-25 -16 -25 -87v-118z" />
    <glyph glyph-name="quotedblright" unicode="&#x201d;" horiz-adv-x="278" 
d="M175 714h20v-118q0 -52 -9 -72t-36 -35v20q25 16 25 87v118zM75 714h20v-118q0 -52 -9 -72t-36 -35v20q25 16 25 87v118z" />
    <glyph glyph-name="quotedblbase" unicode="&#x201e;" horiz-adv-x="278" 
d="M175 98h20v-98q0 -47 -10 -74.5t-35 -44.5v20q25 22 25 99v98zM75 98h20v-98q0 -47 -10 -74.5t-35 -44.5v20q25 22 25 99v98z" />
    <glyph glyph-name="dagger" unicode="&#x2020;" horiz-adv-x="556" 
d="M268 714h20v-243h208v-20h-208v-591h-20v591h-208v20h208v243z" />
    <glyph glyph-name="daggerdbl" unicode="&#x2021;" horiz-adv-x="556" 
d="M268 57h-208v20h208v420h-208v20h208v197h20v-197h208v-20h-208v-420h208v-20h-208v-197h-20v197z" />
    <glyph glyph-name="bullet" unicode="&#x2022;" 
d="M72 357q0 74 52 126t126 52t126.5 -52t52.5 -126t-52.5 -126.5t-126.5 -52.5t-126 52.5t-52 126.5z" />
    <glyph glyph-name="ellipsis" unicode="&#x2026;" horiz-adv-x="1000" 
d="M843 98v-98h-20v98h20zM510 98v-98h-20v98h20zM177 98v-98h-20v98h20z" />
    <glyph glyph-name="perthousand" unicode="&#x2030;" horiz-adv-x="1037" 
d="M89 -34l476 748h23l-476 -748h-23zM21 519q0 77 40.5 125t111.5 48q74 0 114.5 -47.5t40.5 -124.5q0 -72 -41.5 -121t-113.5 -49q-74 0 -113 49t-39 120zM41 519q0 -64 34 -106.5t98 -42.5t99.5 43t35.5 106q0 71 -34 112t-101 41q-66 0 -99 -41.5t-33 -111.5zM709 157
q0 77 40.5 125t111.5 48q74 0 114.5 -47.5t40.5 -124.5q0 -72 -41.5 -121t-113.5 -49q-74 0 -113 49t-39 120zM349 157q0 77 40.5 125t111.5 48q74 0 114.5 -47.5t40.5 -124.5q0 -72 -41.5 -121t-113.5 -49q-74 0 -113 49t-39 120zM729 157q0 -64 34 -106.5t98 -42.5
t99.5 43t35.5 106q0 71 -34 112t-101 41q-66 0 -99 -41.5t-33 -111.5zM369 157q0 -64 34 -106.5t98 -42.5t99.5 43t35.5 106q0 71 -34 112t-101 41q-66 0 -99 -41.5t-33 -111.5z" />
    <glyph glyph-name="guilsinglleft" unicode="&#x2039;" horiz-adv-x="259" 
d="M169 156v-35l-103 139v16l103 139v-35l-83 -112z" />
    <glyph glyph-name="guilsinglright" unicode="&#x203a;" horiz-adv-x="259" 
d="M90 380v35l103 -139v-16l-103 -139v35l83 112z" />
    <glyph glyph-name="Euro" unicode="&#x20ac;" horiz-adv-x="556" 
d="M567 100v-27q-87 -88 -210 -88q-120 0 -198.5 80.5t-97.5 203.5h-61l7 17h53q-2 14 -2 21v21q0 20 2 58h-60l7 17h55q16 128 96 210t206 82q102 0 186 -66l-9 -16q-83 64 -178 64q-117 0 -191.5 -77.5t-89.5 -196.5h407l-9 -17h-400q-2 -32 -2 -48q0 -26 3 -52h378
l-9 -17h-367q19 -115 92 -190.5t185 -75.5q125 0 207 97z" />
    <glyph glyph-name="trademark" unicode="&#x2122;" horiz-adv-x="990" 
d="M496 302v412h34l162 -384l162 384h34v-412h-20v392h-2l-164 -392h-20l-164 392h-2v-392h-20zM232 302v392h-150v20h320v-20h-150v-392h-20z" />
    </font>
</defs>
</svg>
